<?xml version="1.0" encoding="iso-8859-1"?>
<!-- Generator: Adobe Illustrator 18.1.1, SVG Export Plug-In . SVG Version: 6.00 Build 0)  -->
<svg version="1.1" id="Capa_1" xmlns="http://www.w3.org/2000/svg" xmlns:xlink="http://www.w3.org/1999/xlink" x="0px" y="0px"
	 viewBox="0 0 289.333 289.333" style="enable-background:new 0 0 289.333 289.333;" xml:space="preserve">
<g>
	<path id="path6525" d="M144.807,0.002c-1.688-0.051-3.273,0.814-4.143,2.262l-30,50c-1.326,2.21-0.609,5.077,1.601,6.403
		c0.725,0.435,1.555,0.665,2.401,0.665h25v50.697c-16.918,2.441-30,17.064-30,34.637s13.082,32.196,30,34.637v50.695h-25
		c-2.578,0-4.667,2.09-4.667,4.667c0,0.846,0.23,1.676,0.665,2.401l30,50c1.326,2.21,4.193,2.927,6.403,1.601
		c0.657-0.394,1.206-0.944,1.601-1.601l30-50c1.326-2.21,0.609-5.077-1.601-6.403c-0.725-0.435-1.555-0.665-2.401-0.665h-25v-50.695
		c16.918-2.441,30-17.064,30-34.637s-13.082-32.196-30-34.637V59.332h25c2.578,0,4.667-2.09,4.667-4.667
		c0-0.846-0.23-1.676-0.665-2.401l-30-50C147.85,0.902,146.395,0.05,144.807,0.002z M144.667,13.737l21.758,36.262h-43.516
		L144.667,13.737z M144.794,26.137c-0.083-0.004-0.167-0.003-0.25,0.002c-0.823,0.047-1.569,0.496-1.996,1.201l-10,16
		c-0.763,1.151-0.448,2.703,0.703,3.465c1.151,0.763,2.703,0.448,3.465-0.703c0.024-0.037,0.048-0.074,0.07-0.112l10-16
		c0.749-1.16,0.415-2.708-0.745-3.456C145.667,26.293,145.237,26.156,144.794,26.137z M144.667,119.666c13.866,0,25,11.134,25,25
		s-11.134,25-25,25s-25-11.134-25-25S130.8,119.666,144.667,119.666z M144.667,127.166c-9.635,0-17.5,7.865-17.5,17.5
		c-0.02,1.381,1.084,2.516,2.465,2.535c1.381,0.02,2.516-1.084,2.535-2.465c0-0.024,0-0.047,0-0.071c0-6.933,5.567-12.5,12.5-12.5
		c1.381,0.02,2.516-1.084,2.535-2.465c0.02-1.381-1.084-2.516-2.465-2.535C144.714,127.166,144.69,127.166,144.667,127.166z
		 M122.909,239.332h43.516l-21.758,36.262L122.909,239.332z M154.794,242.137c-0.083-0.004-0.167-0.003-0.25,0.002
		c-0.823,0.047-1.569,0.496-1.996,1.201l-10,16c-0.763,1.151-0.448,2.703,0.703,3.465c1.151,0.763,2.703,0.448,3.465-0.703
		c0.024-0.037,0.048-0.074,0.07-0.112l10-16c0.749-1.16,0.415-2.708-0.745-3.456C155.667,242.293,155.237,242.156,154.794,242.137z"
		/>
</g>
<g>
</g>
<g>
</g>
<g>
</g>
<g>
</g>
<g>
</g>
<g>
</g>
<g>
</g>
<g>
</g>
<g>
</g>
<g>
</g>
<g>
</g>
<g>
</g>
<g>
</g>
<g>
</g>
<g>
</g>
</svg>
